# xmcd
#
# Track frame offsets: 
#        150
#        10039
#        19239
#        27981
#        38612
#        50508
#        55941
#        64847
#        73618
#        83388
#        91985
#        97676
#        109123
#        120091
#        137237
#        146122
#        155192
#        163808
#        173778
#        182934
#        193144
#        205550
#        215520
#        224768
#        236223
#        244512
#        253688
#        262687
#
# Disc length: 3640 seconds
#
# Revision: 0
# Processed by: cddbd v1.5.2PL0 Copyright (c) Steve Scherf et al.
# Submitted via: ExactAudioCopy v1.0b1
#
DISCID=8a0e361c
DTITLE=Brian Wicklund and April Verch - American Fiddle Method - Canadia
DTITLE=n Styles
DYEAR=2008
DGENRE=Bluegrass
TTITLE0=On the Road to Boston
TTITLE1=Good Neighbour Waltz
TTITLE2=Andy's Jig
TTITLE3=Whalen's Breakdown
TTITLE4=Hi-Lo Schottische
TTITLE5=Heel Toe Polka
TTITLE6=Waltz Quadrille
TTITLE7=Jonah's First Change
TTITLE8=By the Fireside
TTITLE9=Maggie Cameron's
TTITLE10=Seven Step
TTITLE11=Londonderry  Hornpipe
TTITLE12=Walking Up Town
TTITLE13=Memories of Father Charles MacDonald
TTITLE14=Silver and Gold Two-Step
TTITLE15=The Old Red Barn
TTITLE16=Valse Clog
TTITLE17=Swamplake Breakdown
TTITLE18=Black Velvet Waltz
TTITLE19=Old French
TTITLE20=King of the Fairies
TTITLE21=Patronella
TTITLE22=Joys of Wedlock
TTITLE23=Minstrel's Fancy
TTITLE24=Arcand-saw Traveler
TTITLE25=Birch Hills Waltz
TTITLE26=Little Burnt Potato
TTITLE27=le Bonhomme et la Bonne Femme
EXTD=
EXTT0=
EXTT1=
EXTT2=
EXTT3=
EXTT4=
EXTT5=
EXTT6=
EXTT7=
EXTT8=
EXTT9=
EXTT10=
EXTT11=
EXTT12=
EXTT13=
EXTT14=
EXTT15=
EXTT16=
EXTT17=
EXTT18=
EXTT19=
EXTT20=
EXTT21=
EXTT22=
EXTT23=
EXTT24=
EXTT25=
EXTT26=
EXTT27=
PLAYORDER=
